<?xml version="1.0" encoding="UTF-8"?>
<svg width="128px" height="128px" viewBox="0 0 128 128" version="1.1" xmlns="http://www.w3.org/2000/svg" xmlns:xlink="http://www.w3.org/1999/xlink">
    <title>Artboard</title>
    <defs>
        <path d="M257.492035,265.554043 L365.492035,190.554043 C380.492035,179.554043 384.492035,159.554043 373.492035,144.554043 C363.492035,129.554043 342.492035,126.554043 327.492035,136.554043 L219.492035,211.554043 C175.492035,243.554043 113.492035,232.554043 82.4920351,187.554043 C51.4920351,143.554043 62.4920351,81.5540426 106.492035,50.5540426 L140.492035,26.5540426 C112.492035,-20.4459574 49.4920351,-0.445957416 20.4920351,50.5540426 C-8.50796486,103.554043 -7.50796486,171.554043 28.4920351,225.554043 C80.4920351,299.554043 183.492035,317.554043 257.492035,265.554043 L257.492035,265.554043 Z" id="path-1"></path>
        <path d="M122.263244,28.9647744 L14.2632441,104.964774 C-0.736755935,114.964774 -4.73675593,135.964774 6.26324407,149.964774 C16.2632441,164.964774 37.2632441,168.964774 52.2632441,158.964774 L160.263244,82.9647744 C204.263244,51.9647744 266.263244,62.9647744 297.263244,106.964774 C328.263244,151.964774 317.263244,213.964774 273.263244,244.964774 L239.263244,267.964774 C267.263244,315.964774 330.263244,295.964774 359.263244,244.964774 C389.263244,190.964774 388.263244,122.964774 351.263244,69.9647744 C299.263244,-4.03522561 196.263244,-22.0352256 122.263244,28.9647744 Z" id="path-3"></path>
    </defs>
    <g id="Artboard" stroke="none" stroke-width="1" fill="none" fill-rule="evenodd">
        <g id="Group" transform="translate(-191.000000, -84.000000)">
            <g id="Clipped" transform="translate(0.000000, 0.410732)">
                <mask id="mask-2" fill="white">
                    <use xlink:href="#path-1"></use>
                </mask>
                <g id="spinner__animation__outline_left"></g>
                <path d="M378.492035,144.554043 L235.492035,241.554043 C178.492035,281.554043 101.492035,272.554043 61.4920351,215.554043 C21.4920351,158.554043 18.4920351,76.5540426 75.4920351,36.5540426 L134.492035,6.55404258" id="Path" mask="url(#mask-2)"></path>
            </g>
            <g id="Clipped" transform="translate(130.228791, 0.000000)">
                <mask id="mask-4" fill="white">
                    <use xlink:href="#path-3"></use>
                </mask>
                <g id="spinner__animation__outline_right"></g>
                <path d="M7.26324407,147.964774 L150.263244,49.9647744 C207.263244,10.9647744 279.263244,19.9647744 319.263244,75.9647744 C358.263244,131.964774 360.263244,211.964774 305.263244,253.964774 L258.263244,293.964774" id="Path" mask="url(#mask-4)"></path>
            </g>
        </g>
        <g id="Group-2" transform="translate(15.000000, 35.000000)" fill="#8BCBFA">
            <path d="M3.99312579,9.92980927 C9.64413347,-0.0875948165 21.9204605,-4.01598858 27.3766059,5.21573676 L27.3766059,5.21573676 L20.7512865,9.92980927 C12.1773438,16.0188196 10.0338581,28.1968403 16.0745905,36.8393065 C22.1153228,45.6781925 34.1967875,47.8388091 42.7707302,41.553379 L42.7707302,41.553379 L63.8158623,26.8219024 C66.7387973,24.8577056 70.8309063,25.4469646 72.7795296,28.3932599 C74.9230153,31.3395553 74.143566,35.267949 71.220631,37.4285656 L71.220631,37.4285656 L50.1754989,52.1600422 C35.7556862,62.373866 15.6848658,58.8383116 5.55202446,44.3032547 C-1.46301955,33.6965915 -1.65788189,20.3400527 3.99312579,9.92980927 Z M49.0990816,5.68906049 C63.6850846,-4.32800648 83.9872239,-0.792571083 94.2368476,13.7419967 C101.529849,24.1518898 101.726957,37.5079791 95.8137128,48.1142853 C92.4411923,54.0243548 86.7358181,57.8149112 81.4908395,57.9934069 L81.2245561,57.9993627 L81.2245561,57.9993627 L80.9591478,57.999049 C77.5148822,57.9540306 74.3131559,56.3086389 72.160735,52.6317861 L72.160735,52.6317861 L78.862412,48.1142853 C87.5351705,42.0254799 89.7033602,29.8478691 83.5930076,21.0092806 C79.843473,15.7061275 73.7930877,12.84363 67.673542,12.8302452 L67.3335102,12.8324353 C63.5926902,12.8888274 59.8414757,14.0120647 56.5891913,16.2953667 L56.5891913,16.2953667 L35.3015113,31.2227606 C34.2935719,31.8923506 33.1481862,32.2423636 31.9981148,32.2961453 L31.7680774,32.3029588 C29.6212128,32.3298161 27.488861,31.329895 26.2345364,29.4550429 C24.0663468,26.7052598 24.8547794,22.5805852 27.8114016,20.6164544 L27.8114016,20.6164544 Z" id="Combined-Shape"></path>
        </g>
    </g>
</svg>